<?xml version="1.0" standalone="no"?><!DOCTYPE svg PUBLIC "-//W3C//DTD SVG 1.1//EN"
  "http://www.w3.org/Graphics/SVG/1.1/DTD/svg11.dtd">
<svg t="1655972436330" class="icon" viewBox="0 0 1424 1424" version="1.1" xmlns="http://www.w3.org/2000/svg" p-id="2580"
     xmlns:xlink="http://www.w3.org/1999/xlink" width="81" height="81">
  <rect x="0" y="0" rx="30" ry="30" width="1424" height="1424" fill="#EEEEEE"/>
  <g transform="translate(200,200)">
    <path
      d="M938.55744 796.86656l-225.9968-88.07424c0 0-43.10016-16.73216-59.84256-33.18784-10.76224-10.57792-9.984-35.5328-0.4608-67.40992s125.37856-161.42336 125.37856-279.10144C777.63584 147.3536 658.15552 0 510.78144 0 363.4176 0 243.94752 147.3536 243.94752 329.10336c0 112.71168 103.23968 247.08096 115.97824 271.50336 12.7488 24.4224 9.64608 61.6448-0.41984 72.91904-15.11424 16.93696-70.33856 33.91488-70.33856 33.91488L85.43232 798.23872c-47.59552 17.1008-84.8896 61.99296-84.8896 112.64l0 24.02304c0 55.27552 44.89216 89.09824 100.06528 89.09824l341.7088 0 117.12512 0 363.93984 0c55.18336 0 100.07552-33.82272 100.07552-89.09824l0-24.02304C1023.45728 860.22144 986.1632 813.95712 938.55744 796.86656L938.55744 796.86656zM938.55744 796.86656"
      fill="#CCC"></path>
  </g>
</svg>
